<svg width="920" height="220" viewBox="0 0 920 220" xmlns="http://www.w3.org/2000/svg" role="img" aria-label="Chat Exporter logo">
  <rect x="0" y="0" width="920" height="220" fill="#0a1a2e"/>
  <g transform="translate(34 34)">
    <rect x="0" y="0" width="152" height="152" rx="34" fill="#4aa3ff"/>
    <path d="M38 50 L98 50 Q116 50 126 60 Q136 70 136 88 Q136 106 126 116 Q116 126 98 126 L38 126 L38 108 L96 108 Q104 108 109 103 Q114 98 114 88 Q114 78 109 73 Q104 68 96 68 L38 68 Z" fill="#0a1a2e"/>
    <path d="M77 86 L99 86 L99 78 L117 94 L99 110 L99 102 L77 102 Z" fill="#ff6b35"/>
    <rect x="24" y="24" width="104" height="104" rx="24" fill="none" stroke="#ff6b35" stroke-width="6" opacity="0.9"/>
  </g>
  <g transform="translate(226 0)">
    <text x="0" y="98" fill="#4aa3ff" style="font-family: Inter, Arial, Helvetica, sans-serif; font-size: 54px; font-weight: 700; letter-spacing: -1.2px;">Chat</text>
    <text x="0" y="153" fill="#ffffff" style="fill:#ff6b35; font-family: Inter, Arial, Helvetica, sans-serif; font-size: 54px; font-weight: 700; letter-spacing: -1.2px;">Exporter</text>
  </g>
</svg>