<svg xmlns="http://www.w3.org/2000/svg" width="920" height="240" viewBox="0 0 920 240" role="img" aria-label="Chat Exporter logo">
  <rect width="920" height="240" fill="#0a1a2e"/>
  <g transform="translate(44 40)">
    <g transform="translate(0 0)">
      <rect x="0" y="0" width="152" height="152" rx="34" fill="#4aa3ff"/>
      <path d="M38 52 L96 52 Q120 52 120 76 Q120 100 96 100 L72 100 L56 116 L56 100 L38 100 Q26 100 26 88 L26 64 Q26 52 38 52 Z" fill="#0a1a2e"/>
      <path d="M86 36 L118 36 L118 68" fill="none" stroke="#ff6b35" stroke-width="14" stroke-linecap="round" stroke-linejoin="round"/>
      <path d="M86 68 L118 36" fill="none" stroke="#ff6b35" stroke-width="14" stroke-linecap="round"/>
      <rect x="52" y="68" width="34" height="12" rx="6" fill="#4aa3ff"/>
      <rect x="52" y="88" width="22" height="12" rx="6" fill="#4aa3ff"/>
    </g>
    <g transform="translate(196 0)">
      <text x="0" y="72" fill="#4aa3ff" font-family="Inter, Arial, Helvetica, sans-serif" font-size="56" font-weight="700" letter-spacing="-1.2">Chat</text>
      <text x="0" y="128" fill="#ffffff" font-family="Inter, Arial, Helvetica, sans-serif" font-size="56" font-weight="700" letter-spacing="-1.2">Exporter</text>
      <rect x="2" y="146" width="92" height="8" rx="4" fill="#ff6b35"/>
    </g>
  </g>
</svg>